<svg xmlns="http://www.w3.org/2000/svg" xmlns:xlink="http://www.w3.org/1999/xlink" width="500" zoomAndPan="magnify" viewBox="0 0 375 374.999991" height="500" preserveAspectRatio="xMidYMid meet" version="1.0"><defs><clipPath id="a2f454bc76"><path d="M 2 53 L 374 53 L 374 335 L 2 335 Z M 2 53 " clip-rule="nonzero"/></clipPath><clipPath id="9ea5fb0332"><path d="M 33.394531 7.140625 L 386.480469 69.207031 L 333.117188 372.804688 L -19.96875 310.738281 Z M 33.394531 7.140625 " clip-rule="nonzero"/></clipPath><clipPath id="7ee6241740"><path d="M 33.394531 7.140625 L 386.480469 69.207031 L 333.117188 372.804688 L -19.96875 310.738281 Z M 33.394531 7.140625 " clip-rule="nonzero"/></clipPath></defs><g clip-path="url(#a2f454bc76)"><g clip-path="url(#9ea5fb0332)"><g clip-path="url(#7ee6241740)"><path fill="#974826" d="M 360.511719 175.21875 C 365.949219 167.972656 370.082031 158.914062 372.117188 149.695312 C 374.597656 138.433594 373.726562 127.996094 369.738281 119.429688 C 366.160156 111.347656 357.792969 97.84375 341.519531 94.984375 C 338.8125 94.507812 336.085938 94.402344 333.386719 94.59375 C 332.796875 88.246094 331.074219 82.15625 327.980469 76.785156 C 319.105469 60.488281 307.441406 55.3125 299.164062 53.859375 C 289.796875 52.210938 280.054688 54.578125 271.769531 60.492188 C 268.953125 62.539062 266.324219 64.949219 263.933594 67.648438 C 257.789062 61.867188 250.492188 57.917969 242.777344 56.5625 C 233.773438 54.980469 224.632812 56.996094 217.015625 62.191406 C 210.296875 66.796875 204.910156 73.761719 201.066406 82.828125 C 198.621094 88.226562 197.363281 94.414062 197.359375 101.074219 C 190.503906 101.246094 183.902344 103.5 178.296875 107.675781 C 171.648438 112.585938 166.703125 119.875 163.546875 129.3125 C 162.578125 131.972656 161.953125 134.820312 161.597656 137.796875 C 160.875 137.628906 160.117188 137.453125 159.390625 137.324219 C 151.230469 135.890625 142.609375 137.332031 134.582031 141.082031 C 134.464844 140.8125 134.34375 140.539062 134.226562 140.269531 C 128.59375 127.789062 118.488281 119.433594 106.492188 117.328125 C 97.933594 115.820312 84.8125 116.804688 70.828125 130.042969 C 66.378906 134.046875 62.800781 139.246094 60.191406 145.324219 C 58.015625 144.441406 55.792969 143.800781 53.492188 143.398438 C 46.183594 142.113281 31.871094 142.300781 17.949219 157.796875 C 4.371094 172.273438 3.839844 196.367188 9.164062 212.75 C 11.222656 219.023438 14.140625 224.449219 17.839844 228.761719 C 14.15625 232.902344 10.949219 237.167969 8.363281 241.457031 C -3.707031 261.570312 2.6875 287.714844 22.644531 299.714844 C 28.027344 302.949219 34.089844 305.179688 40.671875 306.339844 C 50.039062 307.984375 59.855469 307.335938 69.015625 304.492188 C 69.101562 304.464844 69.148438 304.433594 69.238281 304.40625 C 71.238281 303.925781 72.464844 303.808594 73.140625 303.761719 C 73.632812 304.265625 74.433594 305.152344 75.640625 306.824219 C 75.671875 306.871094 75.699219 306.957031 75.773438 307.011719 C 84.390625 321.226562 98.597656 331.339844 113.730469 334.085938 C 113.730469 334.085938 113.972656 334.128906 113.972656 334.128906 C 136.789062 338.136719 158.773438 322.726562 162.964844 299.816406 C 163.871094 294.898438 164.3125 289.5625 164.246094 284.015625 C 173.261719 282.683594 182.558594 278.117188 190.976562 270.726562 C 197.722656 264.792969 202.960938 257.972656 206.414062 250.875 C 211.253906 254.140625 216.765625 256.402344 222.621094 257.429688 C 223.1875 257.53125 223.753906 257.628906 224.328125 257.6875 C 239.578125 259.746094 256.152344 254.5 268.761719 243.644531 C 268.816406 243.570312 268.902344 243.542969 268.957031 243.46875 C 270.585938 242.257812 271.65625 241.613281 272.253906 241.300781 C 272.878906 241.535156 273.992188 242.066406 275.761719 243.125 C 275.835938 243.179688 275.867188 243.226562 275.949219 243.242188 C 283.171875 248.339844 291.628906 251.867188 300.351562 253.402344 C 307.660156 254.6875 314.765625 254.519531 321.535156 252.960938 C 344.199219 247.660156 358.382812 224.757812 353.070312 201.925781 C 351.925781 197.0625 350.230469 192.019531 348.003906 186.921875 C 352.492188 184.132812 356.769531 180.179688 360.511719 175.21875 Z M 309.570312 87.035156 C 321.03125 106.371094 297.261719 157.0625 275.816406 126.773438 C 270.621094 119.367188 269.820312 108.527344 271.429688 99.859375 C 274.871094 78.148438 296.140625 62.070312 309.570312 87.035156 Z M 220.265625 91.320312 C 231.234375 65.148438 253.964844 79.136719 259.464844 100.417969 C 261.890625 108.878906 262.144531 119.75 257.640625 127.617188 C 239.195312 159.84375 210.695312 111.664062 220.265625 91.320312 Z M 128.644531 173.675781 C 140.445312 155.101562 166.367188 148.792969 168.71875 177.097656 C 171.539062 199.410156 129.597656 236.457031 121.953125 200.144531 C 120.183594 191.257812 123.738281 180.972656 128.644531 173.675781 Z M 85.097656 145.496094 C 105.574219 125.867188 120.839844 147.742188 117.4375 169.457031 C 116.28125 178.164062 112.175781 188.265625 104.976562 193.703125 C 75.21875 215.910156 68.242188 160.394531 85.097656 145.496094 Z M 33.425781 172.050781 C 50.464844 152.816406 65.84375 171.421875 64.355469 191.269531 C 63.953125 199.230469 61.011719 208.625 54.890625 214.082031 C 29.667969 236.292969 19.28125 186.675781 33.425781 172.050781 Z M 117.449219 313.382812 C 108.167969 311.707031 99.117188 304.953125 93.761719 296.101562 C 93.507812 295.644531 93.210938 295.214844 92.910156 294.789062 C 88.875 289.082031 85.125 285.550781 80.667969 283.894531 C 76.222656 282.195312 71.070312 282.371094 64.253906 283.964844 C 63.734375 284.082031 63.246094 284.246094 62.769531 284.367188 C 52.898438 287.464844 41.65625 286.527344 33.5625 281.648438 C 23.46875 275.589844 20.386719 262.347656 26.449219 252.257812 C 38.695312 231.84375 71.683594 210.667969 96.164062 209.722656 C 100.191406 209.558594 104.195312 210.21875 107.902344 211.621094 C 111.613281 213.023438 115.066406 215.167969 117.992188 217.933594 C 135.753906 234.835938 146.488281 272.523438 142.203125 295.960938 C 140.078125 307.574219 129.035156 315.460938 117.449219 313.382812 Z M 146.128906 248.523438 C 145.144531 240.398438 149.097656 231.394531 154.066406 225.148438 C 166.058594 209.269531 189.917969 205.472656 189.980469 231.167969 C 190.90625 251.480469 150.34375 281.863281 146.128906 248.523438 Z M 183.398438 136.214844 C 191.394531 111.808594 212.910156 122.75 219.429688 141.550781 C 222.242188 148.996094 223.265625 158.792969 219.796875 166.21875 C 205.5 196.636719 176.257812 155.277344 183.398438 136.214844 Z M 316.679688 232.5 C 307.519531 234.636719 296.488281 232.03125 288.082031 226.097656 C 287.671875 225.816406 287.230469 225.492188 286.773438 225.242188 C 280.792969 221.613281 275.933594 219.882812 271.191406 220.089844 C 266.445312 220.339844 261.773438 222.515625 256.167969 226.691406 C 255.742188 226.992188 255.347656 227.339844 254.953125 227.6875 C 247.148438 234.433594 236.429688 238.085938 227.078125 236.816406 C 215.402344 235.261719 207.332031 224.351562 208.882812 212.675781 C 211.996094 189.035156 233.871094 156.496094 255.96875 145.890625 C 259.601562 144.15625 263.5625 143.1875 267.515625 142.964844 C 271.5 142.792969 275.480469 143.367188 279.277344 144.742188 C 302.269531 153.195312 327.125 183.503906 332.496094 206.71875 C 335.144531 218.175781 328.144531 229.808594 316.679688 232.5 Z M 317.199219 161.566406 C 313.070312 154.511719 313.136719 144.65625 315.199219 136.945312 C 319.886719 117.617188 340.28125 104.632812 350.546875 128.171875 C 359.480469 146.519531 334.351562 190.476562 317.199219 161.566406 Z M 317.199219 161.566406 " fill-opacity="1" fill-rule="nonzero"/></g></g></g></svg>