<svg xmlns="http://www.w3.org/2000/svg" xmlns:xlink="http://www.w3.org/1999/xlink" width="500" zoomAndPan="magnify" viewBox="0 0 375 374.999991" height="500" preserveAspectRatio="xMidYMid meet" version="1.0"><path fill="#b9c492" d="M 221.730469 142.417969 C 211.976562 159.417969 192.933594 167.652344 175.335938 163.765625 C 172.519531 170.550781 169.242188 177.566406 165.207031 184.730469 C 158.882812 195.941406 151.949219 205.546875 145.019531 213.703125 C 157.816406 226.816406 160.789062 247.785156 151.035156 265.09375 C 139.230469 286.058594 113.480469 293.835938 93.371094 282.550781 C 90.933594 281.179688 88.722656 279.65625 86.742188 277.902344 C 76.457031 268.980469 71.429688 255.332031 72.800781 241.6875 C 59.929688 250.53125 42.941406 252.054688 28.847656 244.125 C 8.738281 232.839844 2.035156 206.691406 13.765625 185.800781 C 23.820312 167.882812 44.160156 159.570312 62.441406 164.605469 C 66.175781 154.386719 71.125 143.410156 77.828125 132.199219 C 81.945312 125.261719 86.285156 119.011719 90.703125 113.292969 C 78.058594 100.101562 75.238281 79.136719 85.21875 61.828125 C 97.101562 41.015625 123.003906 33.464844 142.960938 44.902344 C 157.585938 53.289062 164.976562 69.605469 163.226562 85.921875 C 170.539062 80.964844 179.144531 78.375 187.828125 78.527344 C 194.457031 78.679688 201.085938 80.355469 207.179688 83.863281 C 227.136719 95.300781 233.6875 121.527344 221.730469 142.339844 Z M 221.730469 142.417969 " fill-opacity="1" fill-rule="nonzero"/><path fill="#acb77e" d="M 221.730469 142.417969 C 211.976562 159.417969 192.933594 167.652344 175.335938 163.765625 C 172.519531 170.550781 169.242188 177.566406 165.207031 184.730469 C 158.882812 195.941406 151.949219 205.546875 145.019531 213.703125 C 157.816406 226.816406 160.789062 247.785156 151.035156 265.09375 C 139.230469 286.058594 113.480469 293.835938 93.371094 282.550781 C 90.933594 281.179688 88.722656 279.65625 86.742188 277.902344 C 92.609375 277.445312 104.871094 275.765625 116.679688 266.921875 C 121.480469 263.339844 134.355469 253.730469 136.105469 239.09375 C 137.628906 225.902344 128.5625 222.855469 130.316406 210.273438 C 131.761719 199.980469 138.164062 199.90625 148.675781 182.292969 C 159.261719 164.527344 155.300781 160.410156 163.300781 153.242188 C 174.957031 142.796875 185.316406 149.890625 196.4375 139.214844 C 207.253906 128.847656 206.722656 113.140625 206.570312 110.777344 C 205.578125 90.726562 189.582031 79.746094 187.753906 78.601562 C 190.800781 78.601562 195.21875 79.058594 200.246094 80.8125 C 202.609375 81.652344 204.894531 82.644531 207.179688 83.9375 C 227.136719 95.375 233.6875 121.601562 221.730469 142.417969 Z M 221.730469 142.417969 " fill-opacity="1" fill-rule="nonzero"/><path fill="#acb77e" d="M 114.777344 194.035156 C 111.804688 203.410156 101.75 208.519531 92.457031 205.546875 C 91.390625 205.164062 90.324219 204.785156 89.410156 204.25 C 82.019531 200.285156 78.363281 191.441406 80.953125 183.207031 C 83.773438 174.515625 92.609375 169.40625 101.367188 171.238281 C 101.976562 171.390625 102.664062 171.542969 103.273438 171.695312 C 112.644531 174.667969 117.746094 184.730469 114.777344 194.035156 Z M 114.777344 194.035156 " fill-opacity="1" fill-rule="nonzero"/><path fill="#a4ad71" d="M 114.777344 194.035156 C 111.804688 203.410156 101.75 208.519531 92.457031 205.546875 C 91.390625 205.164062 90.324219 204.785156 89.410156 204.25 C 92.53125 203.105469 95.425781 201.351562 97.789062 199.140625 C 99.539062 197.464844 105.023438 191.898438 105.175781 183.664062 C 105.253906 179.394531 103.957031 175.125 101.445312 171.238281 C 102.054688 171.390625 102.738281 171.542969 103.347656 171.695312 C 112.71875 174.667969 117.824219 184.730469 114.851562 194.035156 Z M 114.777344 194.035156 " fill-opacity="1" fill-rule="nonzero"/><path fill="#acb77e" d="M 146.007812 139.367188 C 143.039062 148.746094 132.980469 153.855469 123.6875 150.878906 C 122.621094 150.5 121.554688 150.117188 120.640625 149.585938 C 113.253906 145.621094 109.597656 136.777344 112.1875 128.542969 C 115.003906 119.847656 123.839844 114.742188 132.601562 116.570312 C 133.210938 116.722656 133.898438 116.875 134.507812 117.027344 C 143.875 120.003906 148.980469 130.066406 146.007812 139.367188 Z M 146.007812 139.367188 " fill-opacity="1" fill-rule="nonzero"/><path fill="#a4ad71" d="M 146.007812 139.367188 C 143.039062 148.746094 132.980469 153.855469 123.6875 150.878906 C 122.621094 150.5 121.554688 150.117188 120.640625 149.585938 C 123.765625 148.441406 126.660156 146.6875 129.019531 144.476562 C 130.773438 142.796875 136.257812 137.234375 136.410156 129 C 136.488281 124.730469 135.191406 120.460938 132.675781 116.570312 C 133.289062 116.722656 133.972656 116.875 134.582031 117.027344 C 143.953125 120.003906 149.054688 130.066406 146.085938 139.367188 Z M 146.007812 139.367188 " fill-opacity="1" fill-rule="nonzero"/><path fill="#b9c492" d="M 331.195312 327.992188 C 311.617188 329.671875 294.097656 318.613281 287.242188 301.992188 C 280.082031 303.519531 272.386719 304.816406 264.234375 305.5 C 251.4375 306.644531 239.554688 306.414062 228.964844 305.347656 C 225.460938 323.34375 209.921875 337.675781 190.117188 339.503906 C 166.195312 341.714844 145.09375 324.941406 142.960938 301.992188 C 142.734375 299.25 142.734375 296.503906 142.960938 293.910156 C 144.484375 280.339844 152.789062 268.445312 164.75 261.8125 C 150.121094 256.25 139.230469 243.132812 137.78125 227.046875 C 135.648438 204.097656 153.320312 183.664062 177.242188 181.453125 C 197.65625 179.546875 216.09375 191.59375 222.261719 209.511719 C 232.773438 206.765625 244.582031 204.554688 257.683594 203.714844 C 265.683594 203.183594 273.378906 203.183594 280.539062 203.5625 C 284.195312 185.648438 299.8125 171.464844 319.691406 169.789062 C 343.613281 167.804688 364.5625 184.730469 366.464844 207.757812 C 367.914062 224.605469 358.695312 239.933594 344.222656 247.785156 C 352.449219 250.988281 359.457031 256.628906 364.257812 263.796875 C 367.914062 269.363281 370.273438 275.765625 370.882812 282.78125 C 372.789062 305.730469 354.964844 326.011719 331.042969 327.992188 Z M 331.195312 327.992188 " fill-opacity="1" fill-rule="nonzero"/><path fill="#acb77e" d="M 331.195312 327.992188 C 311.617188 329.671875 294.097656 318.613281 287.242188 301.992188 C 280.082031 303.519531 272.386719 304.816406 264.234375 305.5 C 251.4375 306.644531 239.554688 306.414062 228.964844 305.347656 C 225.460938 323.34375 209.921875 337.675781 190.117188 339.503906 C 166.195312 341.714844 145.09375 324.941406 142.960938 301.992188 C 142.734375 299.25 142.734375 296.503906 142.960938 293.910156 C 146.617188 298.488281 155.074219 307.636719 169.015625 312.363281 C 174.726562 314.269531 189.964844 319.453125 202.988281 312.515625 C 214.71875 306.261719 211.976562 297.039062 223.40625 291.394531 C 232.699219 286.746094 236.355469 291.929688 256.847656 290.558594 C 277.492188 289.183594 278.558594 283.621094 288.992188 286.136719 C 304.230469 289.796875 304.304688 302.375 319.386719 305.425781 C 334.089844 308.398438 346.660156 299.019531 348.5625 297.570312 C 364.484375 285.371094 364.410156 265.929688 364.332031 263.796875 C 366.007812 266.3125 368.21875 270.199219 369.589844 275.308594 C 370.273438 277.75 370.730469 280.1875 370.960938 282.78125 C 372.863281 305.730469 355.039062 326.011719 331.121094 327.992188 Z M 331.195312 327.992188 " fill-opacity="1" fill-rule="nonzero"/><path fill="#acb77e" d="M 227.976562 269.285156 C 218.605469 272.105469 208.703125 266.847656 205.808594 257.390625 C 205.503906 256.324219 205.273438 255.179688 205.121094 254.113281 C 204.207031 245.804688 209.3125 237.722656 217.617188 235.203125 C 226.375 232.535156 235.59375 236.957031 239.097656 245.191406 C 239.324219 245.804688 239.554688 246.414062 239.78125 247.023438 C 242.601562 256.402344 237.34375 266.3125 227.898438 269.210938 Z M 227.976562 269.285156 " fill-opacity="1" fill-rule="nonzero"/><path fill="#a4ad71" d="M 227.976562 269.285156 C 218.605469 272.105469 208.703125 266.847656 205.808594 257.390625 C 205.503906 256.324219 205.273438 255.179688 205.121094 254.113281 C 207.863281 256.019531 210.910156 257.390625 214.035156 258.078125 C 216.398438 258.613281 224.089844 259.832031 230.945312 255.332031 C 234.527344 252.96875 237.269531 249.460938 239.019531 245.191406 C 239.25 245.804688 239.476562 246.414062 239.707031 247.023438 C 242.523438 256.402344 237.269531 266.3125 227.824219 269.210938 Z M 227.976562 269.285156 " fill-opacity="1" fill-rule="nonzero"/><path fill="#acb77e" d="M 290.667969 263.949219 C 281.300781 266.769531 271.398438 261.507812 268.5 252.054688 C 268.195312 250.988281 267.96875 249.84375 267.816406 248.777344 C 266.902344 240.464844 272.007812 232.382812 280.308594 229.867188 C 289.070312 227.199219 298.285156 231.621094 301.792969 239.855469 C 302.019531 240.464844 302.25 241.074219 302.476562 241.6875 C 305.296875 251.0625 300.039062 260.976562 290.59375 263.871094 Z M 290.667969 263.949219 " fill-opacity="1" fill-rule="nonzero"/><path fill="#a4ad71" d="M 290.667969 263.949219 C 281.300781 266.769531 271.398438 261.507812 268.5 252.054688 C 268.195312 250.988281 267.96875 249.84375 267.816406 248.777344 C 270.558594 250.683594 273.605469 252.054688 276.730469 252.742188 C 279.089844 253.273438 286.785156 254.496094 293.640625 249.996094 C 297.21875 247.632812 299.964844 244.125 301.714844 239.855469 C 301.945312 240.464844 302.171875 241.074219 302.402344 241.6875 C 305.21875 251.0625 299.964844 260.976562 290.515625 263.871094 Z M 290.667969 263.949219 " fill-opacity="1" fill-rule="nonzero"/></svg>