<svg xmlns="http://www.w3.org/2000/svg" xmlns:xlink="http://www.w3.org/1999/xlink" width="500" zoomAndPan="magnify" viewBox="0 0 375 374.999991" height="500" preserveAspectRatio="xMidYMid meet" version="1.0"><defs><clipPath id="ad449f97a9"><path d="M 0 74.921875 L 375 74.921875 L 375 299.921875 L 0 299.921875 Z M 0 74.921875 " clip-rule="nonzero"/></clipPath><clipPath id="8c0f1e2888"><path d="M 0 149 L 297 149 L 297 299.921875 L 0 299.921875 Z M 0 149 " clip-rule="nonzero"/></clipPath></defs><g clip-path="url(#ad449f97a9)"><path fill="#648acf" d="M 373.027344 231.226562 L 362.609375 183.46875 C 362.578125 183.351562 362.546875 183.21875 362.519531 183.101562 L 350.328125 127.242188 L 350.328125 127.230469 C 350.328125 98.34375 277.425781 74.925781 187.492188 74.925781 C 97.5625 74.925781 24.660156 98.339844 24.652344 127.226562 L 24.644531 127.226562 L 1.957031 231.226562 C 0.726562 234.003906 0.0976562 236.84375 0.0976562 239.722656 C 0.0976562 272.972656 84 299.917969 187.484375 299.917969 C 227.972656 299.917969 265.472656 295.789062 296.109375 288.785156 C 319.160156 283.503906 338.324219 276.601562 351.980469 268.597656 C 366.589844 260.027344 374.886719 250.179688 374.886719 239.722656 C 374.886719 236.84375 374.257812 234.003906 373.027344 231.226562 " fill-opacity="1" fill-rule="nonzero"/></g><path fill="#547ac6" d="M 362.609375 183.46875 C 362.578125 183.351562 362.546875 183.21875 362.519531 183.101562 C 355.449219 151.519531 333.726562 150.261719 333.726562 150.261719 L 333.726562 150.257812 C 324.4375 156.335938 311.574219 161.742188 296.039062 166.210938 C 295.445312 166.710938 294.855469 167.203125 294.292969 167.699219 C 289.40625 172 285.484375 178.171875 286.242188 184.636719 C 286.652344 188.105469 288.351562 191.277344 290.046875 194.320312 C 305.8125 222.640625 325.632812 250.78125 351.980469 268.597656 C 366.589844 260.027344 374.886719 250.179688 374.886719 239.722656 C 374.886719 236.84375 374.257812 234.003906 373.027344 231.226562 L 362.609375 183.46875 " fill-opacity="1" fill-rule="nonzero"/><g clip-path="url(#8c0f1e2888)"><path fill="#547ac6" d="M 283.871094 246.804688 C 278.148438 236.402344 272.425781 226.019531 266.714844 215.617188 C 259.425781 202.363281 251.363281 188.367188 237.867188 181.535156 C 234.554688 179.855469 231.140625 178.707031 227.65625 177.929688 C 214.808594 178.976562 201.351562 179.535156 187.492188 179.535156 C 123.289062 179.535156 67.777344 167.601562 41.257812 150.261719 C 41.257812 150.261719 26.136719 139.539062 2.617188 229.851562 C 1.78125 233.011719 0.945312 236.300781 0.0976562 239.722656 C 0.0976562 272.972656 84 299.917969 187.484375 299.917969 C 227.972656 299.917969 265.472656 295.789062 296.109375 288.785156 C 298.230469 274.84375 291 259.75 283.871094 246.804688 " fill-opacity="1" fill-rule="nonzero"/></g><path fill="#6c6d6f" d="M 317.257812 106.480469 C 294.265625 92.894531 249.445312 83.386719 197.101562 82.347656 C 193.925781 82.273438 190.71875 82.246094 187.484375 82.246094 C 174.722656 82.246094 162.351562 82.742188 150.554688 83.691406 C 126.902344 85.582031 105.574219 89.25 88.171875 94.226562 C 59.320312 102.429688 41.257812 114.175781 41.257812 127.226562 C 41.257812 139.4375 57.050781 150.496094 82.710938 158.601562 C 83.625 158.890625 84.558594 159.175781 85.5 159.457031 C 85.894531 159.578125 86.300781 159.691406 86.703125 159.8125 C 87.265625 159.976562 87.832031 160.140625 88.402344 160.304688 C 88.84375 160.429688 89.289062 160.554688 89.738281 160.679688 C 90.320312 160.839844 90.910156 161 91.5 161.15625 C 91.910156 161.269531 92.316406 161.378906 92.730469 161.484375 C 93.589844 161.710938 94.464844 161.933594 95.34375 162.15625 C 95.480469 162.1875 95.613281 162.226562 95.75 162.261719 C 111.84375 166.257812 130.742188 169.222656 151.394531 170.835938 C 151.429688 170.839844 151.46875 170.839844 151.507812 170.84375 C 153.054688 170.964844 154.613281 171.078125 156.183594 171.183594 C 156.300781 171.191406 156.421875 171.199219 156.542969 171.207031 C 159.691406 171.414062 162.878906 171.59375 166.097656 171.738281 C 166.417969 171.753906 166.742188 171.765625 167.0625 171.78125 C 168.445312 171.839844 169.832031 171.894531 171.222656 171.941406 C 171.4375 171.949219 171.652344 171.957031 171.867188 171.964844 C 173.4375 172.015625 175.015625 172.058594 176.601562 172.09375 C 176.945312 172.101562 177.289062 172.105469 177.636719 172.113281 C 178.890625 172.140625 180.148438 172.160156 181.414062 172.175781 C 181.851562 172.183594 182.285156 172.1875 182.722656 172.195312 C 184.304688 172.207031 185.890625 172.21875 187.484375 172.21875 C 228.570312 172.21875 265.691406 167.011719 292.257812 158.601562 C 294.484375 157.898438 296.636719 157.164062 298.699219 156.421875 C 320.539062 148.566406 333.726562 138.382812 333.726562 127.226562 C 333.726562 119.734375 327.785156 112.683594 317.257812 106.480469 " fill-opacity="1" fill-rule="nonzero"/><path fill="#234072" d="M 207.246094 241.464844 C 204.09375 238.046875 200.972656 234.59375 197.785156 231.207031 C 195.488281 228.769531 191.769531 225.796875 188.246094 225.652344 C 182.523438 225.417969 178.234375 229.515625 174.296875 233.066406 C 170.507812 236.488281 167.21875 240.4375 163.835938 244.25 C 157.621094 251.242188 149.585938 259.167969 151.308594 269.4375 C 152.871094 278.753906 161.085938 284.648438 170.324219 284.117188 C 175.195312 283.835938 179.796875 282.21875 184.542969 281.246094 C 187.367188 280.667969 189.960938 280.570312 192.832031 280.863281 C 194.617188 281.046875 196.316406 281.351562 198.015625 281.324219 C 200.058594 282.246094 202.484375 282.6875 204.417969 282.957031 C 208.027344 283.457031 211.9375 283.183594 215.132812 281.28125 C 221.773438 277.332031 222.875 268.613281 221.28125 261.714844 C 219.378906 253.460938 212.78125 247.464844 207.246094 241.464844 " fill-opacity="1" fill-rule="nonzero"/><path fill="#234072" d="M 199.1875 224.972656 C 203.660156 226.238281 208.710938 224.359375 211.078125 220.328125 C 215.503906 212.796875 212.90625 199.921875 205.082031 195.597656 C 204.230469 195.125 203.371094 195.253906 202.734375 195.703125 C 192.925781 193.363281 190.09375 208.746094 191.171875 215.3125 C 191.898438 219.746094 194.714844 223.707031 199.1875 224.972656 " fill-opacity="1" fill-rule="nonzero"/><path fill="#234072" d="M 226.558594 217.261719 C 225.707031 216.792969 224.847656 216.921875 224.214844 217.371094 C 214.402344 215.03125 211.570312 230.414062 212.648438 236.980469 C 213.375 241.414062 216.191406 245.375 220.667969 246.640625 C 225.140625 247.910156 230.191406 246.027344 232.554688 242 C 236.984375 234.464844 234.382812 221.589844 226.558594 217.261719 " fill-opacity="1" fill-rule="nonzero"/><path fill="#234072" d="M 175.796875 224.972656 C 180.273438 223.707031 183.085938 219.746094 183.8125 215.3125 C 184.894531 208.746094 182.058594 193.363281 172.25 195.703125 C 171.613281 195.253906 170.753906 195.125 169.902344 195.597656 C 162.078125 199.921875 159.480469 212.796875 163.90625 220.328125 C 166.273438 224.359375 171.324219 226.238281 175.796875 224.972656 " fill-opacity="1" fill-rule="nonzero"/><path fill="#234072" d="M 154.316406 246.640625 C 158.792969 245.375 161.605469 241.414062 162.335938 236.980469 C 163.414062 230.414062 160.582031 215.03125 150.773438 217.371094 C 150.136719 216.921875 149.277344 216.792969 148.425781 217.261719 C 140.601562 221.589844 138.003906 234.464844 142.429688 242 C 144.796875 246.027344 149.84375 247.910156 154.316406 246.640625 " fill-opacity="1" fill-rule="nonzero"/><path fill="#636668" d="M 315.664062 125.628906 C 313.601562 132.09375 309.984375 137.945312 306.472656 143.695312 L 298.699219 156.421875 C 320.539062 148.566406 333.726562 138.382812 333.726562 127.226562 C 333.726562 119.734375 327.785156 112.683594 317.257812 106.480469 C 316.222656 112.960938 317.773438 119.0625 315.664062 125.628906 " fill-opacity="1" fill-rule="nonzero"/><path fill="#636668" d="M 93.425781 130.78125 C 87.527344 119.867188 80.457031 105.503906 88.171875 94.226562 C 59.320312 102.429688 41.257812 114.175781 41.257812 127.226562 C 41.257812 139.4375 57.050781 150.496094 82.710938 158.601562 C 87.710938 154.96875 94.65625 151.652344 103.132812 148.769531 C 99.898438 142.773438 96.65625 136.773438 93.425781 130.78125 " fill-opacity="1" fill-rule="nonzero"/><path fill="#767a7c" d="M 208.257812 137.828125 C 198.171875 127.792969 191.421875 114.347656 189.929688 100.179688 C 189.636719 97.339844 189.550781 94.371094 190.589844 91.707031 C 191.320312 89.835938 192.5625 88.226562 193.796875 86.632812 C 194.890625 85.199219 196.003906 83.78125 197.101562 82.347656 C 193.925781 82.273438 190.71875 82.246094 187.484375 82.246094 C 174.722656 82.246094 162.351562 82.742188 150.554688 83.691406 C 156.996094 86.589844 161.09375 90.421875 163.847656 99.210938 C 167.609375 111.222656 169.949219 123.671875 170.8125 136.21875 C 170.847656 136.679688 170.871094 137.148438 170.882812 137.617188 C 144.144531 138.820312 120.433594 142.886719 103.132812 148.769531 C 94.65625 151.652344 87.710938 154.96875 82.710938 158.601562 C 83.625 158.890625 84.558594 159.175781 85.5 159.457031 C 85.894531 159.578125 86.300781 159.691406 86.703125 159.8125 C 87.265625 159.976562 87.832031 160.140625 88.402344 160.304688 C 88.84375 160.429688 89.289062 160.554688 89.738281 160.679688 C 90.320312 160.839844 90.910156 161 91.5 161.15625 C 91.910156 161.269531 92.316406 161.378906 92.730469 161.484375 C 93.589844 161.710938 94.464844 161.933594 95.34375 162.15625 C 95.480469 162.1875 95.613281 162.226562 95.75 162.261719 C 111.84375 166.257812 130.742188 169.222656 151.394531 170.835938 C 151.429688 170.839844 151.46875 170.839844 151.507812 170.84375 C 153.054688 170.964844 154.613281 171.078125 156.183594 171.183594 C 156.300781 171.191406 156.421875 171.199219 156.542969 171.207031 C 159.691406 171.414062 162.878906 171.59375 166.097656 171.738281 C 166.417969 171.753906 166.742188 171.765625 167.0625 171.78125 C 168.445312 171.839844 169.832031 171.894531 171.222656 171.941406 C 171.4375 171.949219 171.652344 171.957031 171.867188 171.964844 C 173.4375 172.015625 175.015625 172.058594 176.601562 172.09375 C 176.945312 172.101562 177.289062 172.105469 177.636719 172.113281 C 178.890625 172.140625 180.148438 172.160156 181.414062 172.175781 C 181.851562 172.183594 182.285156 172.1875 182.722656 172.195312 C 184.304688 172.207031 185.890625 172.21875 187.484375 172.21875 C 228.570312 172.21875 265.691406 167.011719 292.257812 158.601562 C 277.601562 147.941406 246.238281 139.984375 208.257812 137.828125 " fill-opacity="1" fill-rule="nonzero"/></svg>