<svg xmlns="http://www.w3.org/2000/svg" xmlns:xlink="http://www.w3.org/1999/xlink" width="130" zoomAndPan="magnify" viewBox="0 0 97.5 37.5" height="50" preserveAspectRatio="xMidYMid meet" version="1.0"><defs><clipPath id="5f3aa38788"><path d="M 0.394531 7 L 35 7 L 35 35 L 0.394531 35 Z M 0.394531 7 " clip-rule="nonzero"/></clipPath><clipPath id="4d17d8ae8c"><path d="M 88 0.523438 L 96.613281 0.523438 L 96.613281 26 L 88 26 Z M 88 0.523438 " clip-rule="nonzero"/></clipPath><clipPath id="b76530b43a"><path d="M 88 28 L 96.613281 28 L 96.613281 36.789062 L 88 36.789062 Z M 88 28 " clip-rule="nonzero"/></clipPath></defs><g clip-path="url(#5f3aa38788)"><path fill="#231f20" d="M 6.15625 12.527344 C 6.15625 14.457031 6.082031 16.394531 6.230469 18.320312 C 6.367188 20.085938 6.414062 21.972656 7.109375 23.628906 C 7.316406 24.125 7.664062 24.585938 8.144531 24.824219 C 8.902344 25.199219 9.917969 24.886719 10.207031 24.082031 C 11.007812 21.847656 11.617188 19.574219 11.667969 17.183594 C 11.726562 14.234375 12.148438 11.324219 12.566406 8.414062 C 12.648438 7.828125 12.910156 7.558594 13.476562 7.523438 C 13.816406 7.503906 14.152344 7.417969 14.488281 7.417969 C 16.460938 7.433594 18.4375 7.488281 20.414062 7.472656 C 20.949219 7.46875 21.074219 7.664062 21.082031 8.132812 C 21.132812 11.78125 22.085938 15.300781 22.652344 18.875 C 22.804688 19.847656 23.199219 20.75 23.546875 21.660156 C 23.882812 22.535156 24.078125 24.109375 25.484375 23.828125 C 26.96875 23.527344 27.085938 20.902344 27.300781 19.773438 C 27.546875 18.5 27.621094 17.195312 27.746094 15.90625 C 27.964844 13.601562 28.167969 11.292969 28.367188 8.988281 C 28.40625 8.511719 28.546875 8.058594 29.042969 8 C 30.375 7.84375 31.691406 7.398438 33.058594 7.757812 C 33.871094 7.972656 34.144531 8.371094 34.050781 9.226562 C 33.902344 10.566406 33.722656 11.90625 33.636719 13.25 C 33.402344 16.914062 33.003906 20.558594 32.121094 24.128906 C 31.363281 27.195312 30.097656 31.394531 27.164062 33.101562 C 24.738281 34.515625 21.566406 33.414062 19.988281 31.25 C 18.613281 29.359375 17.683594 27.246094 17.078125 24.992188 C 16.902344 24.34375 16.835938 23.667969 16.695312 23.007812 C 16.671875 22.910156 16.515625 22.820312 16.398438 22.773438 C 16.355469 22.753906 16.21875 22.855469 16.191406 22.925781 C 16.042969 23.332031 15.882812 23.738281 15.789062 24.15625 C 15.078125 27.3125 13.757812 30.179688 11.824219 32.773438 C 10.816406 34.125 8.789062 35.296875 7.042969 34.742188 C 5.746094 34.332031 4.445312 32.898438 3.742188 31.765625 C 2.0625 29.070312 1.828125 25.734375 1.34375 22.675781 C 0.835938 19.453125 0.761719 16.378906 0.683594 13.128906 C 0.65625 11.882812 0.609375 10.628906 0.503906 9.386719 C 0.457031 8.824219 0.617188 8.574219 1.167969 8.527344 C 2.515625 8.40625 3.859375 8.246094 5.207031 8.148438 C 5.984375 8.089844 6.128906 8.230469 6.148438 9.046875 C 6.175781 10.207031 6.15625 11.367188 6.15625 12.527344 " fill-opacity="1" fill-rule="nonzero"/></g><path fill="#231f20" d="M 74.300781 29.003906 C 74.222656 29.003906 74.550781 35.128906 73.964844 35.179688 C 73.28125 35.234375 72.609375 35.414062 71.9375 35.398438 C 71.128906 35.375 70.316406 35.179688 69.507812 35.136719 C 69.007812 31.175781 68.636719 27.230469 68.589844 23.234375 C 68.550781 19.378906 68.257812 15.527344 68.066406 11.671875 C 68.023438 10.855469 67.914062 10.039062 67.886719 9.21875 C 67.871094 8.84375 67.890625 8.421875 68.042969 8.089844 C 68.445312 7.207031 69.058594 6.664062 70.164062 6.707031 C 71.355469 6.75 72.558594 6.511719 73.753906 6.523438 C 75.585938 6.542969 77.414062 6.671875 79.246094 6.746094 C 79.777344 6.769531 80.308594 6.78125 80.839844 6.753906 C 81.273438 6.753906 81.707031 6.78125 82.140625 6.78125 C 82.375 7.367188 82.023438 11.019531 81.90625 12.203125 C 81.1875 12.367188 73.300781 12.390625 73.296875 12.214844 C 73.296875 12.648438 73.550781 17.136719 73.660156 17.144531 C 76.097656 17.144531 78.46875 17.101562 80.878906 17.539062 C 81.34375 17.625 81.570312 17.804688 81.527344 18.296875 C 81.351562 20.316406 81.203125 22.339844 81.007812 24.355469 C 80.921875 25.203125 80.707031 25.246094 79.902344 25.230469 C 77.957031 25.230469 76.082031 25.238281 74.167969 25.050781 C 74.167969 26.367188 74.167969 27.6875 74.167969 29.003906 C 74.210938 29.003906 74.253906 29.003906 74.300781 29.003906 " fill-opacity="1" fill-rule="nonzero"/><path fill="#231f20" d="M 48.152344 22.175781 C 48.15625 22.253906 48.160156 22.332031 48.164062 22.414062 C 48.265625 25.011719 47.980469 27.878906 46.527344 30.109375 C 45.410156 31.824219 44.546875 33.460938 42.34375 33.890625 C 39.703125 34.410156 37.152344 33.332031 35.898438 30.90625 C 34.191406 27.597656 33.980469 23.949219 34.332031 20.300781 C 34.699219 16.488281 38.417969 10.75 42.882812 12.457031 C 44.226562 12.96875 45.488281 13.753906 46.355469 14.914062 C 47.910156 16.996094 48.050781 19.679688 48.152344 22.175781 " fill-opacity="1" fill-rule="nonzero"/><path fill="#231f20" d="M 61.855469 24.589844 C 61.636719 23.414062 61.558594 22.1875 61.164062 21.070312 C 60.480469 19.121094 58.496094 18.742188 57 20.171875 C 56.796875 20.367188 56.636719 20.617188 56.46875 20.851562 C 54.535156 23.546875 54.925781 26.402344 55.972656 29.253906 C 56.351562 30.285156 57.363281 30.828125 58.371094 30.859375 C 61.109375 30.941406 62.261719 26.773438 61.855469 24.589844 Z M 65.617188 24.949219 C 65.871094 29.929688 61.898438 36.261719 56.195312 34.328125 C 53.800781 33.515625 52.53125 31.320312 51.65625 29.042969 C 50.746094 26.660156 50.582031 23.878906 51.179688 21.402344 C 51.71875 19.175781 52.632812 17.335938 54.324219 15.875 C 57.214844 13.375 60.960938 13.769531 63.328125 16.769531 C 65.238281 19.183594 65.375 22.003906 65.617188 24.949219 " fill-opacity="1" fill-rule="nonzero"/><g clip-path="url(#4d17d8ae8c)"><path fill="#231f20" d="M 88.953125 3.730469 C 88.953125 3.441406 88.96875 3.148438 89.015625 2.863281 C 89.328125 0.925781 91.675781 1.019531 93.199219 0.777344 C 94.746094 0.527344 96.550781 0.648438 96.527344 2.636719 C 96.503906 4.808594 95.851562 13.914062 95.664062 16.289062 C 95.472656 18.742188 95.398438 21.203125 95.316406 23.664062 C 95.246094 25.679688 95.167969 25.761719 93.105469 25.515625 C 92.339844 25.421875 91.566406 25.382812 90.792969 25.351562 C 90.164062 25.328125 89.824219 25.074219 89.761719 24.410156 C 89.636719 23.113281 89.398438 21.824219 89.324219 20.523438 C 89.132812 17.148438 88.949219 5.949219 88.953125 3.730469 " fill-opacity="1" fill-rule="nonzero"/></g><g clip-path="url(#b76530b43a)"><path fill="#231f20" d="M 88.5 32.082031 C 88.5625 31.410156 88.582031 30.976562 88.652344 30.546875 C 88.875 29.234375 89.757812 28.347656 91.078125 28.292969 C 92.078125 28.25 93.09375 28.363281 94.089844 28.492188 C 94.742188 28.578125 95.183594 29.023438 95.507812 29.621094 C 96.492188 31.4375 96.277344 34.015625 94.992188 35.597656 C 94.519531 36.1875 94.046875 36.480469 93.183594 36.472656 C 92.347656 36.460938 91.570312 36.460938 90.808594 36.121094 C 89.574219 35.566406 88.765625 34.695312 88.660156 33.28125 C 88.625 32.800781 88.53125 32.328125 88.5 32.082031 " fill-opacity="1" fill-rule="nonzero"/></g></svg>